<svg width="15" height="9" viewBox="0 0 15 9" fill="none" xmlns="http://www.w3.org/2000/svg">
<g clip-path="url(#clip0_63_2693)">
<path d="M0.803536 5.30406L11.4107 5.30406L9.08032 7.63442C8.75889 7.95584 8.75889 8.43799 9.08032 8.75942C9.40175 9.08085 9.88389 9.08085 10.2053 8.75942L13.9018 5.06299C14.2232 4.74156 14.2232 4.25942 13.9018 3.93799L10.2053 0.24156C9.88389 -0.0798696 9.40175 -0.0798697 9.08032 0.24156C8.75889 0.562988 8.75889 1.04513 9.08032 1.36656L11.4107 3.69692L0.803536 3.69692C0.40175 3.69692 -3.58041e-05 4.01834 -3.58462e-05 4.50049C-3.58884e-05 4.98263 0.40175 5.30406 0.803536 5.30406Z" fill="#4089ED"/>
</g>
<defs>
<clipPath id="clip0_63_2693">
<rect width="14.1429" height="9" fill="white" transform="translate(14.1428 9.00049) rotate(-180)"/>
</clipPath>
</defs>
</svg>
